# Blender 4.0.0
# www.blender.org
mtllib wall.mtl
o Cube.018
v -2.521809 -0.155983 7.462369
v -2.521809 1.044124 7.462369
v -3.664697 -0.155983 7.462369
v -3.664697 1.044124 7.462369
v -2.521809 -0.155983 7.362500
v -2.521809 1.044124 7.362500
v -3.664697 -0.155983 7.362500
v -3.664697 1.044124 7.362500
v -3.619458 0.616252 7.320710
v -3.632550 0.857563 7.320710
v -3.619458 0.616252 7.608753
v -3.632550 0.857563 7.608753
v -3.915477 0.616252 7.320710
v -3.900203 0.918042 7.320710
v -3.915477 0.616252 7.608753
v -3.900203 0.918042 7.608753
v -3.890809 0.676367 7.584750
v -3.890809 0.432584 7.584749
v -3.890809 0.676367 7.344714
v -3.890809 0.432584 7.344714
v -3.644126 0.676367 7.584749
v -3.644126 0.432584 7.584749
v -3.644126 0.676367 7.344714
v -3.644126 0.432584 7.344714
v -3.944509 0.450599 7.606571
v -3.934735 0.225397 7.606571
v -3.944509 0.450599 7.322892
v -3.934735 0.225397 7.322892
v -3.621701 0.450599 7.606571
v -3.621701 0.225397 7.606571
v -3.621701 0.450599 7.322892
v -3.621701 0.225397 7.322892
v -3.643328 0.081941 7.343937
v -3.643328 0.284334 7.343937
v -3.643328 0.081941 7.585526
v -3.643328 0.284334 7.585526
v -3.891607 0.081941 7.343937
v -3.915524 0.284334 7.343937
v -3.891607 0.081941 7.585526
v -3.915524 0.284334 7.585526
v -3.910341 0.138519 7.603755
v -3.939380 -0.094417 7.603755
v -3.910341 0.138519 7.325708
v -3.939380 -0.094417 7.325708
v -3.624594 0.138519 7.603755
v -3.624594 -0.094417 7.603755
v -3.624594 0.138519 7.325708
v -3.624594 -0.094417 7.325708
v -3.576787 0.893306 7.322088
v -3.332323 1.029818 7.313777
v -3.576787 0.893306 7.607376
v -3.332323 1.029818 7.615686
v -3.737827 1.081986 7.322088
v -3.471062 1.236598 7.313777
v -3.737827 1.081986 7.607376
v -3.471062 1.236598 7.615686
v -3.125244 1.084411 7.289050
v -3.370513 1.002657 7.640413
v -3.125244 1.032985 7.640413
v -3.225960 1.223993 7.289050
v -3.125244 1.223993 7.289050
v -3.493785 1.243535 7.640413
v -3.125244 1.324955 7.640413
v -3.620634 0.855611 7.303795
v -3.539316 0.906371 7.294418
v -3.620634 0.855611 7.625669
v -3.539316 0.906371 7.635046
v -3.942554 0.899619 7.303795
v -3.732285 1.125226 7.294418
v -3.942554 0.899619 7.625669
v -3.732285 1.125226 7.635046
v -3.370513 1.002657 7.289050
v -3.493785 1.243535 7.289050
v -3.125244 1.324955 7.289050
v -3.125244 1.032985 7.289050
v -3.125244 1.223993 7.303315
v -3.125244 1.084411 7.303315
v -3.225960 1.223993 7.303315
v -2.631030 0.616252 7.320710
v -2.617937 0.857563 7.320710
v -2.631030 0.616252 7.608753
v -2.617937 0.857563 7.608753
v -2.335010 0.616252 7.320710
v -2.350285 0.918042 7.320710
v -2.335010 0.616252 7.608753
v -2.350285 0.918042 7.608753
v -2.359679 0.676367 7.584749
v -2.359679 0.432584 7.584749
v -2.359679 0.676367 7.344714
v -2.359679 0.432584 7.344714
v -2.606361 0.676367 7.584749
v -2.606361 0.432584 7.584749
v -2.606361 0.676367 7.344714
v -2.606361 0.432584 7.344714
v -2.337253 0.450599 7.606571
v -2.313042 0.225397 7.606571
v -2.337253 0.450599 7.322892
v -2.313042 0.225397 7.322892
v -2.628787 0.450599 7.606571
v -2.628787 0.225397 7.606571
v -2.628787 0.450599 7.322892
v -2.628787 0.225397 7.322892
v -2.607159 0.081941 7.343937
v -2.607159 0.284334 7.343937
v -2.607159 0.081941 7.585526
v -2.607159 0.284334 7.585526
v -2.358881 0.081941 7.343937
v -2.358881 0.284334 7.343937
v -2.358881 0.081941 7.585526
v -2.358881 0.284334 7.585526
v -2.340147 0.138519 7.603755
v -2.311765 -0.094417 7.603755
v -2.340147 0.138519 7.325708
v -2.311765 -0.094417 7.325708
v -2.625893 0.138519 7.603755
v -2.625893 -0.094417 7.603755
v -2.625893 0.138519 7.325708
v -2.625893 -0.094417 7.325708
v -2.673701 0.893306 7.322088
v -2.918165 1.029818 7.313777
v -2.673701 0.893306 7.607376
v -2.918165 1.029818 7.615686
v -2.512661 1.081986 7.322088
v -2.779426 1.236598 7.313776
v -2.512661 1.081986 7.607376
v -2.779426 1.236598 7.615686
v -2.879974 1.002657 7.640413
v -3.024527 1.223993 7.289050
v -2.756702 1.243535 7.640413
v -2.629853 0.855611 7.303794
v -2.711172 0.906371 7.294418
v -2.629853 0.855611 7.625669
v -2.711172 0.906371 7.635045
v -2.307934 0.899619 7.303794
v -2.518203 1.125226 7.294418
v -2.307934 0.899619 7.625669
v -2.518203 1.125226 7.635045
v -2.879974 1.002657 7.289050
v -2.756702 1.243535 7.289050
v -3.024527 1.223993 7.303315
v 6.626069 -0.424354 8.078531
v 6.626069 1.705623 8.078531
v 6.626069 -0.424354 7.371328
v 6.626069 1.705623 7.371328
v 5.985015 -0.424354 8.078531
v 5.985015 1.705623 8.078531
v 5.985015 -0.424354 7.371328
v 5.985015 1.705623 7.371328
v -7.114647 -0.070437 -9.923770
v -7.114647 1.351706 -9.923770
v -7.114647 -0.070437 -10.363235
v -7.114647 1.351706 -10.363235
v -3.259114 -0.070437 -9.923770
v -3.259114 1.351706 -9.923770
v -3.259114 -0.070437 -10.363235
v -3.259114 1.351706 -10.363235
v 6.565291 -0.070437 7.877501
v 6.565291 1.351706 7.877501
v 6.125828 -0.070437 7.877501
v 6.125828 1.351706 7.877501
v 6.565290 -0.070437 -10.297168
v 6.565290 1.351706 -10.297168
v 6.125827 -0.070437 -10.297168
v 6.125827 1.351706 -10.297168
v -6.666343 -0.070437 7.746175
v -6.666343 1.351706 7.746175
v -7.105808 -0.070437 7.746175
v -7.105808 1.351706 7.746175
v -6.666343 -0.070437 -10.221993
v -6.666343 1.351706 -10.221993
v -7.105809 -0.070437 -10.221993
v -7.105809 1.351706 -10.221993
v -7.157038 -0.070437 7.954115
v -7.157038 1.351706 7.954115
v -7.157038 -0.070437 7.514651
v -7.157038 1.351706 7.514651
v 6.504375 -0.070437 7.954115
v 6.504375 1.351706 7.954115
v 6.504375 -0.070437 7.514651
v 6.504375 1.351706 7.514651
v 3.008780 -0.070437 -9.923770
v 3.008780 1.351706 -9.923770
v 3.008780 -0.070437 -10.363235
v 3.008780 1.351706 -10.363235
v 6.601600 -0.070437 -9.923770
v 6.601600 1.351706 -9.923770
v 6.601600 -0.070437 -10.363235
v 6.601600 1.351706 -10.363235
v -6.472683 -0.424354 8.078531
v -6.472683 1.705623 8.078531
v -6.472683 -0.424354 7.371328
v -6.472683 1.705623 7.371328
v -7.113739 -0.424354 8.078531
v -7.113739 1.705623 8.078531
v -7.113739 -0.424354 7.371328
v -7.113739 1.705623 7.371328
v 6.626069 -0.424354 -9.787663
v 6.626069 1.705623 -9.787663
v 6.626069 -0.424354 -10.494868
v 6.626069 1.705623 -10.494868
v 5.985014 -0.424354 -9.787663
v 5.985014 1.705623 -9.787663
v 5.985014 -0.424354 -10.494868
v 5.985014 1.705623 -10.494868
v -6.514041 -0.424354 -9.787663
v -6.514041 1.705623 -9.787663
v -6.514041 -0.424354 -10.494868
v -6.514041 1.705623 -10.494868
v -7.155096 -0.424354 -9.787663
v -7.155096 1.705623 -9.787663
v -7.155096 -0.424354 -10.494868
v -7.155096 1.705623 -10.494868
v 5.948641 0.616252 -4.016196
v 5.948641 0.857563 -4.003104
v 6.236684 0.616252 -4.016196
v 6.236684 0.857563 -4.003104
v 5.948641 0.616252 -3.720177
v 5.948641 0.918042 -3.735452
v 6.236684 0.616252 -3.720177
v 6.236684 0.918042 -3.735452
v 6.212680 0.676367 -3.744845
v 6.212680 0.432584 -3.744845
v 5.972644 0.676367 -3.744845
v 5.972644 0.432584 -3.744845
v 6.212680 0.676367 -3.991529
v 6.212680 0.432584 -3.991529
v 5.972644 0.676367 -3.991529
v 5.972644 0.432584 -3.991529
v 6.234501 0.450599 -3.691146
v 6.234501 0.225397 -3.700919
v 5.950823 0.450599 -3.691146
v 5.950823 0.225397 -3.700919
v 6.234502 0.450599 -4.013954
v 6.234501 0.225397 -4.013954
v 5.950823 0.450599 -4.013954
v 5.950823 0.225397 -4.013954
v 5.971868 0.081941 -3.992327
v 5.971868 0.284334 -3.992327
v 6.213456 0.081941 -3.992327
v 6.213456 0.284334 -3.992327
v 5.971868 0.081941 -3.744047
v 5.971868 0.284334 -3.720131
v 6.213456 0.081941 -3.744047
v 6.213456 0.284334 -3.720131
v 6.231686 0.138519 -3.725313
v 6.231686 -0.094417 -3.696275
v 5.953639 0.138519 -3.725313
v 5.953639 -0.094417 -3.696275
v 6.231686 0.138519 -4.011060
v 6.231686 -0.094417 -4.011060
v 5.953639 0.138519 -4.011060
v 5.953639 -0.094417 -4.011060
v 5.950018 0.893306 -4.058868
v 5.941707 1.029818 -4.303332
v 6.235306 0.893306 -4.058868
v 6.243617 1.029818 -4.303331
v 5.950018 1.081986 -3.897828
v 5.941707 1.236598 -4.164593
v 6.235306 1.081986 -3.897828
v 6.243617 1.236598 -4.164593
v 5.916981 1.084411 -4.510410
v 6.268343 1.002657 -4.265141
v 6.268343 1.032985 -4.510410
v 5.916981 1.223993 -4.409694
v 5.916981 1.223993 -4.510410
v 6.268343 1.243535 -4.141870
v 6.268343 1.324955 -4.510410
v 5.931726 0.855611 -4.015020
v 5.922348 0.906371 -4.096338
v 6.253598 0.855611 -4.015020
v 6.262976 0.906371 -4.096338
v 5.931726 0.899619 -3.693101
v 5.922348 1.125226 -3.903370
v 6.253598 0.899619 -3.693101
v 6.262976 1.125226 -3.903370
v 5.916981 1.002657 -4.265141
v 5.916981 1.243535 -4.141870
v 5.916981 1.324955 -4.510410
v 5.916981 1.032985 -4.510410
v 5.931245 1.223993 -4.510410
v 5.931245 1.084411 -4.510410
v 5.931245 1.223993 -4.409694
v 5.948641 0.616252 -5.004625
v 5.948641 0.857563 -5.017717
v 6.236684 0.616252 -5.004625
v 6.236684 0.857563 -5.017717
v 5.948641 0.616252 -5.300645
v 5.948641 0.918042 -5.285370
v 6.236684 0.616252 -5.300645
v 6.236684 0.918042 -5.285370
v 6.212680 0.676367 -5.275976
v 6.212680 0.432584 -5.275976
v 5.972645 0.676367 -5.275976
v 5.972645 0.432584 -5.275976
v 6.212680 0.676367 -5.029293
v 6.212680 0.432584 -5.029293
v 5.972645 0.676367 -5.029293
v 5.972644 0.432584 -5.029293
v 6.234502 0.450599 -5.298402
v 6.234502 0.225397 -5.322613
v 5.950823 0.450599 -5.298402
v 5.950823 0.225397 -5.322613
v 6.234502 0.450599 -5.006867
v 6.234502 0.225397 -5.006867
v 5.950823 0.450599 -5.006867
v 5.950823 0.225397 -5.006867
v 5.971868 0.081941 -5.028495
v 5.971868 0.284334 -5.028495
v 6.213456 0.081941 -5.028495
v 6.213456 0.284334 -5.028495
v 5.971868 0.081941 -5.276774
v 5.971868 0.284334 -5.276774
v 6.213456 0.081941 -5.276774
v 6.213456 0.284334 -5.276774
v 6.231686 0.138519 -5.295508
v 6.231686 -0.094417 -5.323889
v 5.953639 0.138519 -5.295508
v 5.953639 -0.094417 -5.323889
v 6.231686 0.138519 -5.009762
v 6.231686 -0.094417 -5.009762
v 5.953639 0.138519 -5.009762
v 5.953639 -0.094417 -5.009762
v 5.950018 0.893306 -4.961953
v 5.941707 1.029818 -4.717490
v 6.235306 0.893306 -4.961953
v 6.243617 1.029818 -4.717489
v 5.950018 1.081986 -5.122993
v 5.941707 1.236598 -4.856229
v 6.235306 1.081986 -5.122993
v 6.243617 1.236598 -4.856229
v 6.268343 1.002657 -4.755681
v 5.916981 1.223993 -4.611128
v 6.268343 1.243535 -4.878952
v 5.931726 0.855611 -5.005801
v 5.922348 0.906371 -4.924483
v 6.253598 0.855611 -5.005801
v 6.262976 0.906371 -4.924483
v 5.931726 0.899619 -5.327721
v 5.922348 1.125226 -5.117452
v 6.253598 0.899619 -5.327721
v 6.262976 1.125226 -5.117452
v 5.916981 1.002657 -4.755681
v 5.916981 1.243535 -4.878952
v 5.931245 1.223993 -4.611128
v 5.977645 -0.155983 -3.937510
v 5.977645 1.044124 -3.937510
v 5.977645 -0.155983 -5.080399
v 5.977645 1.044124 -5.080399
v 6.077515 -0.155983 -3.937510
v 6.077515 1.044124 -3.937510
v 6.077515 -0.155983 -5.080399
v 6.077515 1.044124 -5.080399
v 2.370216 0.616252 7.320710
v 2.357124 0.857563 7.320710
v 2.370216 0.616252 7.608753
v 2.357124 0.857563 7.608753
v 2.074197 0.616252 7.320710
v 2.089472 0.918042 7.320710
v 2.074197 0.616252 7.608753
v 2.089472 0.918042 7.608753
v 2.098865 0.676367 7.584749
v 2.098865 0.432584 7.584749
v 2.098865 0.676367 7.344714
v 2.098865 0.432584 7.344714
v 2.345548 0.676367 7.584749
v 2.345548 0.432584 7.584749
v 2.345548 0.676367 7.344714
v 2.345548 0.432584 7.344714
v 2.045166 0.450599 7.606571
v 2.054939 0.225397 7.606571
v 2.045166 0.450599 7.322892
v 2.054939 0.225397 7.322892
v 2.367974 0.450599 7.606571
v 2.367974 0.225397 7.606571
v 2.367974 0.450599 7.322892
v 2.367974 0.225397 7.322892
v 2.346346 0.081941 7.343937
v 2.346346 0.284334 7.343937
v 2.346346 0.081941 7.585526
v 2.346346 0.284334 7.585526
v 2.098067 0.081941 7.343937
v 2.074150 0.284334 7.343937
v 2.098067 0.081941 7.585526
v 2.074150 0.284334 7.585526
v 2.079333 0.138519 7.603755
v 2.050295 -0.094417 7.603755
v 2.079333 0.138519 7.325708
v 2.050295 -0.094417 7.325708
v 2.365080 0.138519 7.603755
v 2.365080 -0.094417 7.603755
v 2.365080 0.138519 7.325708
v 2.365080 -0.094417 7.325708
v 2.412888 0.893306 7.322087
v 2.657351 1.029818 7.313776
v 2.412888 0.893306 7.607375
v 2.657351 1.029818 7.615686
v 2.251848 1.081986 7.322087
v 2.518613 1.236598 7.313776
v 2.251848 1.081986 7.607375
v 2.518613 1.236598 7.615686
v 2.864430 1.084411 7.289050
v 2.619161 1.002657 7.640413
v 2.864430 1.032985 7.640413
v 2.763714 1.223993 7.289050
v 2.864430 1.223993 7.289050
v 2.495889 1.243535 7.640413
v 2.864430 1.324955 7.640413
v 2.369040 0.855611 7.303794
v 2.450358 0.906371 7.294418
v 2.369040 0.855611 7.625669
v 2.450358 0.906371 7.635045
v 2.047121 0.899619 7.303794
v 2.257390 1.125226 7.294418
v 2.047121 0.899619 7.625669
v 2.257390 1.125226 7.635045
v 2.619161 1.002657 7.289050
v 2.495889 1.243535 7.289050
v 2.864430 1.324955 7.289050
v 2.864430 1.032985 7.289050
v 2.864430 1.223993 7.303315
v 2.864430 1.084411 7.303314
v 2.763714 1.223993 7.303314
v 3.358644 0.616252 7.320710
v 3.371737 0.857563 7.320710
v 3.358644 0.616252 7.608753
v 3.371737 0.857563 7.608753
v 3.654664 0.616252 7.320710
v 3.639390 0.918042 7.320710
v 3.654664 0.616252 7.608753
v 3.639390 0.918042 7.608753
v 3.629996 0.676367 7.584749
v 3.629996 0.432584 7.584749
v 3.629996 0.676367 7.344714
v 3.629996 0.432584 7.344713
v 3.383313 0.676367 7.584749
v 3.383313 0.432584 7.584749
v 3.383313 0.676367 7.344714
v 3.383313 0.432584 7.344713
v 3.652421 0.450599 7.606570
v 3.676632 0.225397 7.606570
v 3.652421 0.450599 7.322892
v 3.676632 0.225397 7.322892
v 3.360887 0.450599 7.606571
v 3.360887 0.225397 7.606570
v 3.360887 0.450599 7.322892
v 3.360887 0.225397 7.322892
v 3.382515 0.081941 7.343937
v 3.382515 0.284334 7.343937
v 3.382515 0.081941 7.585526
v 3.382515 0.284334 7.585526
v 3.630794 0.081941 7.343937
v 3.630794 0.284334 7.343937
v 3.630794 0.081941 7.585526
v 3.630794 0.284334 7.585526
v 3.649528 0.138519 7.603755
v 3.677909 -0.094417 7.603755
v 3.649528 0.138519 7.325708
v 3.677909 -0.094417 7.325707
v 3.363781 0.138519 7.603755
v 3.363781 -0.094417 7.603755
v 3.363781 0.138519 7.325708
v 3.363781 -0.094417 7.325708
v 3.315973 0.893306 7.322087
v 3.071510 1.029818 7.313776
v 3.315973 0.893306 7.607375
v 3.071510 1.029818 7.615686
v 3.477014 1.081986 7.322087
v 3.210248 1.236598 7.313776
v 3.477014 1.081986 7.607375
v 3.210248 1.236598 7.615686
v 3.109701 1.002657 7.640413
v 2.965147 1.223993 7.289050
v 3.232972 1.243535 7.640413
v 3.359821 0.855611 7.303794
v 3.278503 0.906371 7.294418
v 3.359821 0.855611 7.625668
v 3.278503 0.906371 7.635045
v 3.681740 0.899619 7.303794
v 3.471472 1.125226 7.294418
v 3.681740 0.899619 7.625668
v 3.471472 1.125226 7.635045
v 3.109701 1.002657 7.289050
v 3.232972 1.243535 7.289050
v 2.965147 1.223993 7.303314
v 3.446143 -0.155983 7.488376
v 3.446143 1.044124 7.488376
v 2.303254 -0.155983 7.488376
v 2.303254 1.044124 7.488376
v 3.446143 -0.155983 7.388506
v 3.446143 1.044124 7.388506
v 2.303254 -0.155983 7.388506
v 2.303254 1.044124 7.388506
v -6.637575 -0.155983 -3.937510
v -6.637575 1.044124 -3.937510
v -6.637575 -0.155983 -5.080399
v -6.637575 1.044124 -5.080399
v -6.537705 -0.155983 -3.937510
v -6.537705 1.044124 -3.937510
v -6.537705 -0.155983 -5.080399
v -6.537705 1.044124 -5.080399
v -6.463448 0.616252 -5.004626
v -6.463448 0.857563 -5.017718
v -6.751491 0.616252 -5.004626
v -6.751491 0.857563 -5.017718
v -6.463448 0.616252 -5.300645
v -6.463448 0.918042 -5.285371
v -6.751491 0.616252 -5.300645
v -6.751491 0.918042 -5.285371
v -6.727487 0.676367 -5.275977
v -6.727487 0.432584 -5.275977
v -6.487452 0.676367 -5.275977
v -6.487452 0.432584 -5.275977
v -6.727487 0.676367 -5.029294
v -6.727487 0.432584 -5.029294
v -6.487452 0.676367 -5.029294
v -6.487452 0.432584 -5.029294
v -6.749309 0.450599 -5.329677
v -6.749309 0.225397 -5.319902
v -6.465630 0.450599 -5.329677
v -6.465630 0.225397 -5.319902
v -6.749309 0.450599 -5.006868
v -6.749309 0.225397 -5.006868
v -6.465630 0.450599 -5.006868
v -6.465630 0.225397 -5.006868
v -6.486675 0.081941 -5.028497
v -6.486675 0.284334 -5.028497
v -6.728264 0.081941 -5.028497
v -6.728264 0.284334 -5.028497
v -6.486675 0.081941 -5.276775
v -6.486675 0.284334 -5.300692
v -6.728264 0.081941 -5.276775
v -6.728264 0.284334 -5.300692
v -6.746492 0.138519 -5.295509
v -6.746492 -0.094417 -5.324548
v -6.468446 0.138519 -5.295509
v -6.468446 -0.094417 -5.324548
v -6.746492 0.138519 -5.009763
v -6.746492 -0.094417 -5.009763
v -6.468446 0.138519 -5.009763
v -6.468446 -0.094417 -5.009763
v -6.464825 0.893306 -4.961954
v -6.456514 1.029818 -4.717491
v -6.750113 0.893306 -4.961954
v -6.758424 1.029818 -4.717491
v -6.464825 1.081986 -5.122995
v -6.456514 1.236598 -4.856230
v -6.750113 1.081986 -5.122995
v -6.758424 1.236598 -4.856230
v -6.431787 1.084411 -4.510411
v -6.783151 1.002657 -4.755681
v -6.783151 1.032985 -4.510411
v -6.431787 1.223993 -4.611129
v -6.431787 1.223993 -4.510411
v -6.783151 1.243535 -4.878953
v -6.783151 1.324955 -4.510411
v -6.446532 0.855611 -5.005802
v -6.437156 0.906371 -4.924483
v -6.768406 0.855611 -5.005802
v -6.777783 0.906371 -4.924483
v -6.446532 0.899619 -5.327722
v -6.437156 1.125226 -5.117453
v -6.768406 0.899619 -5.327722
v -6.777783 1.125226 -5.117453
v -6.431787 1.002657 -4.755681
v -6.431787 1.243535 -4.878953
v -6.431787 1.324955 -4.510411
v -6.431787 1.032985 -4.510411
v -6.446053 1.223993 -4.510411
v -6.446053 1.084411 -4.510411
v -6.446053 1.223993 -4.611129
v -6.463448 0.616252 -4.016197
v -6.463448 0.857563 -4.003105
v -6.751491 0.616252 -4.016197
v -6.751491 0.857563 -4.003105
v -6.463448 0.616252 -3.720178
v -6.463448 0.918042 -3.735453
v -6.751491 0.616252 -3.720178
v -6.751491 0.918042 -3.735453
v -6.727487 0.676367 -3.744846
v -6.727487 0.432584 -3.744846
v -6.487452 0.676367 -3.744846
v -6.487452 0.432584 -3.744846
v -6.727487 0.676367 -3.991529
v -6.727487 0.432584 -3.991529
v -6.487452 0.676367 -3.991529
v -6.487452 0.432584 -3.991529
v -6.749309 0.450599 -3.722421
v -6.749309 0.225397 -3.698210
v -6.465630 0.450599 -3.722421
v -6.465630 0.225397 -3.698210
v -6.749309 0.450599 -4.013955
v -6.749309 0.225397 -4.013955
v -6.465630 0.450599 -4.013955
v -6.465630 0.225397 -4.013955
v -6.486675 0.081941 -3.992328
v -6.486675 0.284334 -3.992328
v -6.728264 0.081941 -3.992328
v -6.728264 0.284334 -3.992328
v -6.486675 0.081941 -3.744048
v -6.486675 0.284334 -3.744048
v -6.728264 0.081941 -3.744048
v -6.728264 0.284334 -3.744048
v -6.746492 0.138519 -3.725314
v -6.746492 -0.094417 -3.696933
v -6.468446 0.138519 -3.725314
v -6.468446 -0.094417 -3.696933
v -6.746492 0.138519 -4.011061
v -6.746492 -0.094417 -4.011061
v -6.468446 0.138519 -4.011061
v -6.468446 -0.094417 -4.011061
v -6.464825 0.893306 -4.058869
v -6.456514 1.029818 -4.303332
v -6.750113 0.893306 -4.058869
v -6.758424 1.029818 -4.303332
v -6.464825 1.081986 -3.897829
v -6.456514 1.236598 -4.164594
v -6.750113 1.081986 -3.897829
v -6.758424 1.236598 -4.164594
v -6.783151 1.002657 -4.265141
v -6.431787 1.223993 -4.409696
v -6.783151 1.243535 -4.141870
v -6.446532 0.855611 -4.015021
v -6.437156 0.906371 -4.096339
v -6.768406 0.855611 -4.015021
v -6.777783 0.906371 -4.096339
v -6.446532 0.899619 -3.693102
v -6.437156 1.125226 -3.903370
v -6.768406 0.899619 -3.693102
v -6.777783 1.125226 -3.903370
v -6.431787 1.002657 -4.265141
v -6.431787 1.243535 -4.141870
v -6.446053 1.223993 -4.409696
vn -0.0000 -0.0000 1.0000
vn -1.0000 -0.0000 -0.0000
vn -0.0000 -0.0000 -1.0000
vn 1.0000 -0.0000 -0.0000
vn -0.0000 -1.0000 -0.0000
vn -0.0000 1.0000 -0.0000
vn 0.0899 -0.0808 0.9927
vn 0.0896 0.0730 0.9933
vn -0.0761 0.0947 0.9926
vn -0.0897 -0.0810 0.9927
vn 0.0896 0.0730 -0.9933
vn -0.0761 0.0947 -0.9926
vn 0.0899 -0.0808 -0.9927
vn 0.0868 -0.0826 0.9928
vn -0.0868 -0.0826 0.9928
vn -0.0868 -0.0826 -0.9928
vn 0.0868 -0.0826 -0.9928
vn -0.0897 -0.0810 -0.9927
vn -0.0868 0.0826 0.9928
vn 0.0868 0.0826 0.9928
vn 0.0868 0.0826 -0.9928
vn -0.0868 0.0826 -0.9928
vn -0.0842 -0.0840 -0.9929
vn -0.0892 0.0812 -0.9927
vn -0.0934 0.0786 0.9925
vn -0.0798 -0.0861 0.9931
vn -0.0934 0.0786 -0.9925
vn -0.0798 -0.0861 -0.9931
vn -0.0892 0.0812 0.9927
vn -0.0842 -0.0840 0.9929
vn -0.0938 -0.0784 0.9925
vn -0.0938 -0.0784 -0.9925
vn -0.0795 0.0862 0.9931
vn -0.0795 0.0862 -0.9931
vn -0.0364 -0.1484 0.9883
vn 0.0951 -0.0285 0.9951
vn 0.0141 0.0879 0.9960
vn -0.1615 0.0208 0.9866
vn 0.0951 -0.0285 -0.9951
vn 0.0141 0.0879 -0.9960
vn -0.0364 -0.1484 -0.9883
vn -0.1615 0.0208 -0.9866
vn -0.0535 -0.0979 0.9938
vn -0.0000 -0.0767 0.9971
vn -0.0000 0.0934 0.9956
vn -0.1152 0.0510 0.9920
vn -0.0535 -0.0979 -0.9938
vn -0.0000 -0.0767 -0.9971
vn -0.0000 0.0934 -0.9956
vn -0.1152 0.0510 -0.9920
vn -0.0000 0.0316 -0.9995
vn 0.0204 -0.0097 -0.9997
vn 0.1176 -0.0557 -0.9915
vn -0.0000 0.1209 -0.9927
vn 0.0264 -0.2054 0.9783
vn 0.0850 -0.0140 0.9963
vn -0.0042 0.0777 0.9970
vn -0.1834 -0.0647 0.9809
vn 0.0850 -0.0140 -0.9963
vn -0.0042 0.0777 -0.9970
vn 0.0264 -0.2054 -0.9783
vn -0.1834 -0.0647 -0.9809
vn -0.0000 -0.0829 -0.9966
vn -0.0899 -0.0808 0.9927
vn 0.0897 -0.0810 0.9927
vn 0.0761 0.0947 0.9926
vn -0.0896 0.0730 0.9933
vn 0.0761 0.0947 -0.9926
vn -0.0896 0.0730 -0.9933
vn -0.0899 -0.0808 -0.9927
vn 0.0897 -0.0810 -0.9927
vn 0.0928 -0.0790 -0.9925
vn 0.0805 0.0858 -0.9931
vn 0.0928 -0.0790 0.9925
vn 0.0805 0.0858 0.9931
vn 0.0936 -0.0785 -0.9925
vn 0.0936 -0.0785 0.9925
vn 0.0796 0.0862 0.9931
vn 0.0796 0.0862 -0.9931
vn 0.0364 -0.1484 0.9883
vn 0.1615 0.0208 0.9866
vn -0.0141 0.0879 0.9960
vn -0.0951 -0.0285 0.9951
vn -0.0141 0.0879 -0.9960
vn -0.0951 -0.0285 -0.9951
vn 0.0364 -0.1484 -0.9883
vn 0.1615 0.0208 -0.9866
vn 0.0535 -0.0979 0.9938
vn 0.1152 0.0510 0.9920
vn 0.0535 -0.0979 -0.9938
vn 0.1152 0.0510 -0.9920
vn -0.1176 -0.0557 -0.9915
vn -0.0204 -0.0097 -0.9997
vn -0.0264 -0.2054 0.9783
vn 0.1834 -0.0647 0.9809
vn 0.0042 0.0777 0.9970
vn -0.0850 -0.0140 0.9963
vn 0.0042 0.0777 -0.9970
vn -0.0850 -0.0140 -0.9963
vn -0.0264 -0.2054 -0.9783
vn 0.1834 -0.0647 -0.9809
vn 0.0657 -0.0449 -0.9968
vn 0.1379 0.1471 -0.9795
vn 0.1368 0.1482 0.9794
vn 0.0665 -0.0466 0.9967
vn -0.1379 0.1471 -0.9795
vn -0.1368 0.1482 0.9794
vn -0.0657 -0.0449 -0.9968
vn -0.0665 -0.0466 0.9967
vn -0.1265 -0.1349 0.9828
vn -0.0681 0.0503 0.9964
vn 0.0592 0.0263 0.9979
vn 0.2299 -0.2473 0.9413
vn -0.0592 0.0263 0.9979
vn -0.2299 -0.2473 0.9413
vn 0.0681 0.0503 0.9964
vn 0.1265 -0.1349 0.9828
vn 0.0589 -0.0252 0.9979
vn -0.0589 -0.0252 0.9979
vn 0.2395 0.2570 0.9363
vn -0.2395 0.2570 0.9363
vn 0.6847 -0.6939 0.2230
vn 0.0558 -0.0032 -0.9984
vn 0.6810 0.6708 -0.2937
vn 0.0555 0.0021 0.9985
vn -0.0557 -0.0032 -0.9984
vn -0.6810 0.6708 -0.2937
vn -0.6847 -0.6939 0.2230
vn -0.0555 0.0021 0.9985
vn 0.5946 -0.5951 0.5406
vn 0.7264 -0.6872 -0.0000
vn 0.7201 0.6938 -0.0000
vn 0.0558 0.0059 0.9984
vn -0.5946 -0.5951 0.5406
vn -0.7264 -0.6872 -0.0000
vn -0.7201 0.6938 -0.0000
vn -0.0558 0.0059 0.9984
vn -0.7501 0.6613 -0.0000
vn -0.9485 -0.0015 -0.3167
vn -0.0557 -0.0048 -0.9984
vn -0.6998 0.7143 -0.0000
vn 0.6923 -0.7059 -0.1497
vn 0.0559 -0.0006 -0.9984
vn 0.7204 0.6936 -0.0068
vn 0.0554 -0.0036 0.9985
vn -0.0559 -0.0006 -0.9984
vn -0.7204 0.6936 -0.0068
vn -0.6923 -0.7059 -0.1497
vn -0.0554 -0.0036 0.9985
vn -0.7242 -0.6896 -0.0000
vn 0.0657 -0.0449 0.9968
vn 0.0665 -0.0466 -0.9967
vn 0.1368 0.1482 -0.9794
vn 0.1379 0.1471 0.9795
vn -0.1368 0.1482 -0.9794
vn -0.1379 0.1471 0.9795
vn -0.0657 -0.0449 0.9968
vn -0.0665 -0.0466 -0.9967
vn -0.0597 -0.0284 -0.9978
vn -0.2142 0.2311 -0.9491
vn 0.0597 -0.0284 -0.9978
vn 0.2142 0.2311 -0.9491
vn -0.0590 -0.0257 -0.9979
vn 0.0590 -0.0257 -0.9979
vn 0.2353 0.2528 -0.9385
vn -0.2353 0.2528 -0.9385
vn 0.6847 -0.6939 -0.2230
vn 0.0555 0.0021 -0.9985
vn 0.6810 0.6708 0.2937
vn 0.0557 -0.0032 0.9984
vn -0.6810 0.6708 0.2937
vn -0.0558 -0.0032 0.9984
vn -0.6847 -0.6939 -0.2230
vn -0.0555 0.0021 -0.9985
vn 0.5946 -0.5951 -0.5406
vn 0.0558 0.0059 -0.9984
vn -0.5946 -0.5951 -0.5406
vn -0.0558 0.0059 -0.9984
vn -0.0557 -0.0048 0.9984
vn -0.9485 -0.0015 0.3167
vn 0.6923 -0.7059 0.1497
vn 0.0554 -0.0036 -0.9985
vn 0.7204 0.6936 0.0068
vn 0.0559 -0.0006 0.9984
vn -0.7204 0.6936 0.0068
vn -0.0559 -0.0006 0.9984
vn -0.6923 -0.7059 0.1497
vn -0.0554 -0.0036 -0.9985
vn -0.0849 -0.0140 0.9963
vn 0.1265 -0.1349 -0.9828
vn 0.0681 0.0503 -0.9964
vn -0.0592 0.0263 -0.9979
vn -0.2299 -0.2473 -0.9413
vn 0.0592 0.0263 -0.9979
vn 0.2299 -0.2473 -0.9413
vn -0.0681 0.0503 -0.9964
vn -0.1265 -0.1349 -0.9828
vn -0.0589 -0.0252 -0.9979
vn 0.0589 -0.0252 -0.9979
vn -0.2395 0.2570 -0.9363
vn 0.2395 0.2570 -0.9363
vn -0.0557 -0.0032 0.9984
vn 0.0558 -0.0032 0.9984
vn -0.7202 0.6938 -0.0000
vn 0.7501 0.6613 -0.0000
vn 0.9485 -0.0015 0.3167
vn 0.0557 -0.0048 0.9984
vn 0.6998 0.7143 -0.0000
vn 0.7242 -0.6896 -0.0000
vn 0.0597 -0.0284 0.9978
vn 0.2142 0.2311 0.9491
vn -0.0597 -0.0284 0.9978
vn -0.2142 0.2311 0.9491
vn 0.0590 -0.0257 0.9979
vn -0.0590 -0.0257 0.9979
vn -0.2353 0.2528 0.9385
vn 0.2353 0.2528 0.9385
vn 0.0557 -0.0032 -0.9984
vn 0.0557 -0.0048 -0.9984
vn 0.9485 -0.0015 -0.3167
vt 0.375000 0.000000
vt 0.625000 0.000000
vt 0.625000 0.250000
vt 0.375000 0.250000
vt 0.625000 0.500000
vt 0.375000 0.500000
vt 0.625000 0.750000
vt 0.375000 0.750000
vt 0.625000 1.000000
vt 0.375000 1.000000
vt 0.125000 0.500000
vt 0.125000 0.750000
vt 0.875000 0.500000
vt 0.875000 0.750000
vt 0.375000 0.698921
vt 0.301910 0.550806
vt 0.375000 0.550973
s 0
usemtl Bench_Bottom.003
f 1/1/1 2/2/1 4/3/1 3/4/1
f 3/4/2 4/3/2 8/5/2 7/6/2
f 7/6/3 8/5/3 6/7/3 5/8/3
f 5/8/4 6/7/4 2/9/4 1/10/4
f 3/11/5 7/6/5 5/8/5 1/12/5
f 8/5/6 4/13/6 2/14/6 6/7/6
s 1
usemtl Material.040
f 11/6/7 12/5/8 16/7/9 15/8/10
f 16/5/9 12/13/8 10/14/11 14/7/12
f 9/4/13 10/3/11 12/5/8 11/6/7
f 22/1/14 18/2/15 20/3/16 24/4/17
f 15/8/10 16/7/9 14/9/12 13/10/18
f 17/5/19 21/13/20 23/14/21 19/7/22
f 11/1/7 15/2/10 13/3/18 9/4/13
f 24/4/17 23/3/21 21/5/20 22/6/14
f 20/11/16 19/6/22 23/8/21 24/12/17
f 22/6/14 21/5/20 17/7/19 18/8/15
f 28/11/23 27/6/24 31/8/21 32/12/17
f 13/11/18 14/6/12 10/8/11 9/12/13
f 35/6/14 36/5/20 40/7/25 39/8/26
f 39/8/26 40/7/25 38/9/27 37/10/28
f 40/5/25 36/13/20 34/14/21 38/7/27
f 30/6/14 29/5/20 25/7/29 26/8/30
f 18/8/15 17/7/19 19/9/22 20/10/16
f 32/4/17 31/3/21 29/5/20 30/6/14
f 30/1/14 26/2/30 28/3/23 32/4/17
f 35/1/14 39/2/26 37/3/28 33/4/17
f 46/1/14 42/2/31 44/3/32 48/4/17
f 37/11/28 38/6/27 34/8/21 33/12/17
f 48/4/17 47/3/21 45/5/20 46/6/14
f 46/6/14 45/5/20 41/7/33 42/8/31
f 26/8/30 25/7/29 27/9/24 28/10/23
f 42/8/31 41/7/33 43/9/34 44/10/32
f 44/11/32 43/6/34 47/8/21 48/12/17
f 25/5/29 29/13/20 31/14/21 27/7/24
f 33/4/17 34/3/21 36/5/20 35/6/14
f 41/5/33 45/13/20 47/14/21 43/7/34
f 51/6/35 52/5/36 56/7/37 55/8/38
f 56/5/37 52/13/36 50/14/39 54/7/40
f 49/4/41 50/3/39 52/5/36 51/6/35
f 55/8/38 56/7/37 54/9/40 53/10/42
f 51/1/35 55/2/38 53/3/42 49/4/41
f 53/11/42 54/6/40 50/8/39 49/12/41
f 58/6/43 59/5/44 63/7/45 62/8/46
f 72/4/47 75/3/48 59/5/44 58/6/43
f 62/8/46 63/7/45 74/9/49 73/10/50
f 58/1/43 62/2/46 73/3/50 72/4/47
f 57/15/51 60/16/52 78/16/53 77/15/54
f 66/6/55 67/5/56 71/7/57 70/8/58
f 71/5/57 67/13/56 65/14/59 69/7/60
f 64/4/61 65/3/59 67/5/56 66/6/55
f 70/8/58 71/7/57 69/9/60 68/10/62
f 66/1/55 70/2/58 68/3/62 64/4/61
f 68/11/62 69/6/60 65/8/59 64/12/61
f 60/16/52 57/15/51 72/12/47 73/11/50
f 61/17/63 60/16/52 73/11/50 74/6/49
f 57/15/51 75/8/48 72/12/47
f 60/16/52 61/17/63 76/17/63 78/16/53
f 81/6/64 85/8/65 86/7/66 82/5/67
f 86/5/66 84/7/68 80/14/69 82/13/67
f 79/4/70 81/6/64 82/5/67 80/3/69
f 92/1/15 94/4/16 90/3/17 88/2/14
f 85/8/65 83/10/71 84/9/68 86/7/66
f 87/5/20 89/7/21 93/14/22 91/13/19
f 81/1/64 79/4/70 83/3/71 85/2/65
f 94/4/16 92/6/15 91/5/19 93/3/22
f 90/11/17 94/12/16 93/8/22 89/6/21
f 92/6/15 88/8/14 87/7/20 91/5/19
f 98/11/72 102/12/16 101/8/22 97/6/73
f 83/11/71 79/12/70 80/8/69 84/6/68
f 105/6/15 109/8/14 110/7/20 106/5/19
f 109/8/14 107/10/17 108/9/21 110/7/20
f 110/5/20 108/7/21 104/14/22 106/13/19
f 100/6/15 96/8/74 95/7/75 99/5/19
f 88/8/14 90/10/17 89/9/21 87/7/20
f 102/4/16 100/6/15 99/5/19 101/3/22
f 100/1/15 102/4/16 98/3/72 96/2/74
f 105/1/15 103/4/16 107/3/17 109/2/14
f 116/1/15 118/4/16 114/3/76 112/2/77
f 107/11/17 103/12/16 104/8/22 108/6/21
f 118/4/16 116/6/15 115/5/19 117/3/22
f 116/6/15 112/8/77 111/7/78 115/5/19
f 96/8/74 98/10/72 97/9/73 95/7/75
f 112/8/77 114/10/76 113/9/79 111/7/78
f 114/11/76 118/12/16 117/8/22 113/6/79
f 95/5/75 97/7/73 101/14/22 99/13/19
f 103/4/16 105/6/15 106/5/19 104/3/22
f 111/5/78 113/7/79 117/14/22 115/13/19
f 121/6/80 125/8/81 126/7/82 122/5/83
f 126/5/82 124/7/84 120/14/85 122/13/83
f 119/4/86 121/6/80 122/5/83 120/3/85
f 125/8/81 123/10/87 124/9/84 126/7/82
f 121/1/80 119/4/86 123/3/87 125/2/81
f 123/11/87 119/12/86 120/8/85 124/6/84
f 127/6/88 129/8/89 63/7/45 59/5/44
f 138/4/90 127/6/88 59/5/44 75/3/48
f 129/8/89 139/10/91 74/9/49 63/7/45
f 127/1/88 138/4/90 139/3/91 129/2/89
f 57/15/51 77/15/54 140/16/92 128/16/93
f 132/6/94 136/8/95 137/7/96 133/5/97
f 137/5/96 135/7/98 131/14/99 133/13/97
f 130/4/100 132/6/94 133/5/97 131/3/99
f 136/8/95 134/10/101 135/9/98 137/7/96
f 132/1/94 130/4/100 134/3/101 136/2/95
f 134/11/101 130/12/100 131/8/99 135/6/98
f 128/16/93 139/11/91 138/12/90 57/15/51
f 61/17/63 74/6/49 139/11/91 128/16/93
f 57/15/51 138/12/90 75/8/48
f 128/16/93 140/16/92 76/17/63 61/17/63
f 215/6/102 216/5/103 220/7/104 219/8/105
f 220/5/104 216/13/103 214/14/106 218/7/107
f 213/4/108 214/3/106 216/5/103 215/6/102
f 226/1/17 222/2/14 224/3/15 228/4/16
f 219/8/105 220/7/104 218/9/107 217/10/109
f 221/5/20 225/13/21 227/14/22 223/7/19
f 215/1/102 219/2/105 217/3/109 213/4/108
f 228/4/16 227/3/22 225/5/21 226/6/17
f 224/11/15 223/6/19 227/8/22 228/12/16
f 226/6/17 225/5/21 221/7/20 222/8/14
f 232/11/110 231/6/111 235/8/22 236/12/16
f 217/11/109 218/6/107 214/8/106 213/12/108
f 239/6/17 240/5/21 244/7/112 243/8/113
f 243/8/113 244/7/112 242/9/114 241/10/115
f 244/5/112 240/13/21 238/14/22 242/7/114
f 234/6/17 233/5/21 229/7/116 230/8/117
f 222/8/14 221/7/20 223/9/19 224/10/15
f 236/4/16 235/3/22 233/5/21 234/6/17
f 234/1/17 230/2/117 232/3/110 236/4/16
f 239/1/17 243/2/113 241/3/115 237/4/16
f 250/1/17 246/2/118 248/3/119 252/4/16
f 241/11/115 242/6/114 238/8/22 237/12/16
f 252/4/16 251/3/22 249/5/21 250/6/17
f 250/6/17 249/5/21 245/7/120 246/8/118
f 230/8/117 229/7/116 231/9/111 232/10/110
f 246/8/118 245/7/120 247/9/121 248/10/119
f 248/11/119 247/6/121 251/8/22 252/12/16
f 229/5/116 233/13/21 235/14/22 231/7/111
f 237/4/16 238/3/22 240/5/21 239/6/17
f 245/5/120 249/13/21 251/14/22 247/7/121
f 255/6/122 256/5/123 260/7/124 259/8/125
f 260/5/124 256/13/123 254/14/126 258/7/127
f 253/4/128 254/3/126 256/5/123 255/6/122
f 259/8/125 260/7/124 258/9/127 257/10/129
f 255/1/122 259/2/125 257/3/129 253/4/128
f 257/11/129 258/6/127 254/8/126 253/12/128
f 262/6/130 263/5/131 267/7/132 266/8/133
f 276/4/134 279/3/135 263/5/131 262/6/130
f 266/8/133 267/7/132 278/9/136 277/10/137
f 262/1/130 266/2/133 277/3/137 276/4/134
f 261/15/138 264/16/139 282/16/140 281/15/141
f 270/6/142 271/5/143 275/7/144 274/8/145
f 275/5/144 271/13/143 269/14/146 273/7/147
f 268/4/148 269/3/146 271/5/143 270/6/142
f 274/8/145 275/7/144 273/9/147 272/10/149
f 270/1/142 274/2/145 272/3/149 268/4/148
f 272/11/149 273/6/147 269/8/146 268/12/148
f 264/16/139 261/15/138 276/12/134 277/11/137
f 265/17/150 264/16/139 277/11/137 278/6/136
f 261/15/138 279/8/135 276/12/134
f 264/16/139 265/17/150 280/17/150 282/16/140
f 285/6/151 289/8/152 290/7/153 286/5/154
f 290/5/153 288/7/155 284/14/156 286/13/154
f 283/4/157 285/6/151 286/5/154 284/3/156
f 296/1/14 298/4/15 294/3/16 292/2/17
f 289/8/152 287/10/158 288/9/155 290/7/153
f 291/5/21 293/7/22 297/14/19 295/13/20
f 285/1/151 283/4/157 287/3/158 289/2/152
f 298/4/15 296/6/14 295/5/20 297/3/19
f 294/11/16 298/12/15 297/8/19 293/6/22
f 296/6/14 292/8/17 291/7/21 295/5/20
f 302/11/159 306/12/15 305/8/19 301/6/160
f 287/11/158 283/12/157 284/8/156 288/6/155
f 309/6/14 313/8/17 314/7/21 310/5/20
f 313/8/17 311/10/16 312/9/22 314/7/21
f 314/5/21 312/7/22 308/14/19 310/13/20
f 304/6/14 300/8/161 299/7/162 303/5/20
f 292/8/17 294/10/16 293/9/22 291/7/21
f 306/4/15 304/6/14 303/5/20 305/3/19
f 304/1/14 306/4/15 302/3/159 300/2/161
f 309/1/14 307/4/15 311/3/16 313/2/17
f 320/1/14 322/4/15 318/3/163 316/2/164
f 311/11/16 307/12/15 308/8/19 312/6/22
f 322/4/15 320/6/14 319/5/20 321/3/19
f 320/6/14 316/8/164 315/7/165 319/5/20
f 300/8/161 302/10/159 301/9/160 299/7/162
f 316/8/164 318/10/163 317/9/166 315/7/165
f 318/11/163 322/12/15 321/8/19 317/6/166
f 299/5/162 301/7/160 305/14/19 303/13/20
f 307/4/15 309/6/14 310/5/20 308/3/19
f 315/5/165 317/7/166 321/14/19 319/13/20
f 325/6/167 329/8/168 330/7/169 326/5/170
f 330/5/169 328/7/171 324/14/172 326/13/170
f 323/4/173 325/6/167 326/5/170 324/3/172
f 329/8/168 327/10/174 328/9/171 330/7/169
f 325/1/167 323/4/173 327/3/174 329/2/168
f 327/11/174 323/12/173 324/8/172 328/6/171
f 331/6/175 333/8/176 267/7/132 263/5/131
f 342/4/177 331/6/175 263/5/131 279/3/135
f 333/8/176 343/10/178 278/9/136 267/7/132
f 331/1/175 342/4/177 343/3/178 333/2/176
f 261/15/138 281/15/141 344/16/179 332/16/180
f 336/6/181 340/8/182 341/7/183 337/5/184
f 341/5/183 339/7/185 335/14/186 337/13/184
f 334/4/187 336/6/181 337/5/184 335/3/186
f 340/8/182 338/10/188 339/9/185 341/7/183
f 336/1/181 334/4/187 338/3/188 340/2/182
f 338/11/188 334/12/187 335/8/186 339/6/185
f 332/16/180 343/11/178 342/12/177 261/15/138
f 265/17/150 278/6/136 343/11/178 332/16/180
f 261/15/138 342/12/177 279/8/135
f 332/16/180 344/16/179 280/17/150 265/17/150
f 355/6/7 356/5/8 360/7/9 359/8/10
f 360/5/9 356/13/8 354/14/11 358/7/12
f 353/4/13 354/3/11 356/5/8 355/6/7
f 366/1/14 362/2/15 364/3/16 368/4/17
f 359/8/10 360/7/9 358/9/12 357/10/18
f 361/5/19 365/13/20 367/14/21 363/7/22
f 355/1/7 359/2/10 357/3/18 353/4/13
f 368/4/17 367/3/21 365/5/20 366/6/14
f 364/11/16 363/6/22 367/8/21 368/12/17
f 366/6/14 365/5/20 361/7/19 362/8/15
f 372/11/23 371/6/24 375/8/21 376/12/17
f 357/11/18 358/6/12 354/8/11 353/12/13
f 379/6/14 380/5/20 384/7/25 383/8/26
f 383/8/26 384/7/25 382/9/27 381/10/28
f 384/5/25 380/13/20 378/14/21 382/7/27
f 374/6/14 373/5/20 369/7/29 370/8/30
f 362/8/15 361/7/19 363/9/22 364/10/16
f 376/4/17 375/3/21 373/5/20 374/6/14
f 374/1/14 370/2/30 372/3/23 376/4/17
f 379/1/14 383/2/26 381/3/28 377/4/17
f 390/1/14 386/2/31 388/3/32 392/4/17
f 381/11/28 382/6/27 378/8/21 377/12/17
f 392/4/17 391/3/21 389/5/20 390/6/14
f 390/6/14 389/5/20 385/7/33 386/8/31
f 370/8/30 369/7/29 371/9/24 372/10/23
f 386/8/31 385/7/33 387/9/34 388/10/32
f 388/11/32 387/6/34 391/8/21 392/12/17
f 369/5/29 373/13/20 375/14/21 371/7/24
f 377/4/17 378/3/21 380/5/20 379/6/14
f 385/5/33 389/13/20 391/14/21 387/7/34
f 395/6/35 396/5/36 400/7/37 399/8/38
f 400/5/37 396/13/36 394/14/39 398/7/40
f 393/4/41 394/3/39 396/5/36 395/6/35
f 399/8/38 400/7/37 398/9/40 397/10/42
f 395/1/35 399/2/38 397/3/42 393/4/41
f 397/11/42 398/6/40 394/8/39 393/12/41
f 402/6/43 403/5/44 407/7/45 406/8/46
f 416/4/47 419/3/48 403/5/44 402/6/43
f 406/8/46 407/7/45 418/9/49 417/10/50
f 402/1/43 406/2/46 417/3/50 416/4/47
f 401/15/51 404/16/52 422/16/53 421/15/54
f 410/6/55 411/5/56 415/7/57 414/8/58
f 415/5/57 411/13/56 409/14/59 413/7/60
f 408/4/61 409/3/59 411/5/56 410/6/55
f 414/8/58 415/7/57 413/9/60 412/10/62
f 410/1/55 414/2/58 412/3/62 408/4/61
f 412/11/62 413/6/60 409/8/59 408/12/61
f 404/16/52 401/15/51 416/12/47 417/11/50
f 405/17/63 404/16/52 417/11/50 418/6/49
f 401/15/51 419/8/48 416/12/47
f 404/16/52 405/17/63 420/17/63 422/16/53
f 425/6/64 429/8/65 430/7/66 426/5/67
f 430/5/66 428/7/68 424/14/69 426/13/67
f 423/4/70 425/6/64 426/5/67 424/3/69
f 436/1/15 438/4/16 434/3/17 432/2/14
f 429/8/65 427/10/71 428/9/68 430/7/66
f 431/5/20 433/7/21 437/14/22 435/13/19
f 425/1/64 423/4/70 427/3/71 429/2/65
f 438/4/16 436/6/15 435/5/19 437/3/22
f 434/11/17 438/12/16 437/8/22 433/6/21
f 436/6/15 432/8/14 431/7/20 435/5/19
f 442/11/72 446/12/16 445/8/22 441/6/73
f 427/11/71 423/12/70 424/8/69 428/6/68
f 449/6/15 453/8/14 454/7/20 450/5/19
f 453/8/14 451/10/17 452/9/21 454/7/20
f 454/5/20 452/7/21 448/14/22 450/13/19
f 444/6/15 440/8/74 439/7/75 443/5/19
f 432/8/14 434/10/17 433/9/21 431/7/20
f 446/4/16 444/6/15 443/5/19 445/3/22
f 444/1/15 446/4/16 442/3/72 440/2/74
f 449/1/15 447/4/16 451/3/17 453/2/14
f 460/1/15 462/4/16 458/3/76 456/2/77
f 451/11/17 447/12/16 448/8/22 452/6/21
f 462/4/16 460/6/15 459/5/19 461/3/22
f 460/6/15 456/8/77 455/7/78 459/5/19
f 440/8/74 442/10/72 441/9/73 439/7/75
f 456/8/77 458/10/76 457/9/79 455/7/78
f 458/11/76 462/12/16 461/8/22 457/6/79
f 439/5/75 441/7/73 445/14/22 443/13/19
f 447/4/16 449/6/15 450/5/19 448/3/22
f 455/5/78 457/7/79 461/14/22 459/13/19
f 465/6/80 469/8/81 470/7/82 466/5/83
f 470/5/82 468/7/84 464/14/85 466/13/83
f 463/4/86 465/6/80 466/5/83 464/3/85
f 469/8/81 467/10/87 468/9/84 470/7/82
f 465/1/80 463/4/86 467/3/87 469/2/81
f 467/11/87 463/12/86 464/8/85 468/6/84
f 471/6/88 473/8/89 407/7/45 403/5/44
f 482/4/90 471/6/88 403/5/44 419/3/48
f 473/8/89 483/10/91 418/9/49 407/7/45
f 471/1/88 482/4/90 483/3/91 473/2/89
f 401/15/51 421/15/54 484/16/92 472/16/93
f 476/6/94 480/8/95 481/7/96 477/5/189
f 481/5/96 479/7/98 475/14/99 477/13/189
f 474/4/100 476/6/94 477/5/189 475/3/99
f 480/8/95 478/10/101 479/9/98 481/7/96
f 476/1/94 474/4/100 478/3/101 480/2/95
f 478/11/101 474/12/100 475/8/99 479/6/98
f 472/16/93 483/11/91 482/12/90 401/15/51
f 405/17/63 418/6/49 483/11/91 472/16/93
f 401/15/51 482/12/90 419/8/48
f 472/16/93 484/16/92 420/17/63 405/17/63
f 503/6/157 504/5/156 508/7/155 507/8/158
f 508/5/155 504/13/156 502/14/154 506/7/153
f 501/4/151 502/3/154 504/5/156 503/6/157
f 514/1/15 510/2/16 512/3/17 516/4/14
f 507/8/158 508/7/155 506/9/153 505/10/152
f 509/5/22 513/13/19 515/14/20 511/7/21
f 503/1/157 507/2/158 505/3/152 501/4/151
f 516/4/14 515/3/20 513/5/19 514/6/15
f 512/11/17 511/6/21 515/8/20 516/12/14
f 514/6/15 513/5/19 509/7/22 510/8/16
f 520/11/190 519/6/191 523/8/20 524/12/14
f 505/11/152 506/6/153 502/8/154 501/12/151
f 527/6/15 528/5/19 532/7/192 531/8/193
f 531/8/193 532/7/192 530/9/194 529/10/195
f 532/5/192 528/13/19 526/14/20 530/7/194
f 522/6/15 521/5/19 517/7/196 518/8/197
f 510/8/16 509/7/22 511/9/21 512/10/17
f 524/4/14 523/3/20 521/5/19 522/6/15
f 522/1/15 518/2/197 520/3/190 524/4/14
f 527/1/15 531/2/193 529/3/195 525/4/14
f 538/1/15 534/2/198 536/3/199 540/4/14
f 529/11/195 530/6/194 526/8/20 525/12/14
f 540/4/14 539/3/20 537/5/19 538/6/15
f 538/6/15 537/5/19 533/7/200 534/8/198
f 518/8/197 517/7/196 519/9/191 520/10/190
f 534/8/198 533/7/200 535/9/201 536/10/199
f 536/11/199 535/6/201 539/8/20 540/12/14
f 517/5/196 521/13/19 523/14/20 519/7/191
f 525/4/14 526/3/20 528/5/19 527/6/15
f 533/5/200 537/13/19 539/14/20 535/7/201
f 543/6/173 544/5/202 548/7/171 547/8/174
f 548/5/171 544/13/202 542/14/203 546/7/169
f 541/4/167 542/3/203 544/5/202 543/6/173
f 547/8/174 548/7/171 546/9/169 545/10/168
f 543/1/173 547/2/174 545/3/168 541/4/167
f 545/11/168 546/6/169 542/8/203 541/12/167
f 550/6/177 551/5/135 555/7/204 554/8/178
f 564/4/175 567/3/131 551/5/135 550/6/177
f 554/8/178 555/7/204 566/9/132 565/10/176
f 550/1/177 554/2/178 565/3/176 564/4/175
f 549/15/205 552/16/206 570/16/207 569/15/208
f 558/6/187 559/5/186 563/7/185 562/8/188
f 563/5/185 559/13/186 557/14/184 561/7/183
f 556/4/181 557/3/184 559/5/186 558/6/187
f 562/8/188 563/7/185 561/9/183 560/10/182
f 558/1/187 562/2/188 560/3/182 556/4/181
f 560/11/182 561/6/183 557/8/184 556/12/181
f 552/16/206 549/15/205 564/12/175 565/11/176
f 553/17/209 552/16/206 565/11/176 566/6/132
f 549/15/205 567/8/131 564/12/175
f 552/16/206 553/17/209 568/17/209 570/16/207
f 573/6/108 577/8/109 578/7/107 574/5/106
f 578/5/107 576/7/104 572/14/103 574/13/106
f 571/4/102 573/6/108 574/5/106 572/3/103
f 584/1/16 586/4/17 582/3/14 580/2/15
f 577/8/109 575/10/105 576/9/104 578/7/107
f 579/5/19 581/7/20 585/14/21 583/13/22
f 573/1/108 571/4/102 575/3/105 577/2/109
f 586/4/17 584/6/16 583/5/22 585/3/21
f 582/11/14 586/12/17 585/8/21 581/6/20
f 584/6/16 580/8/15 579/7/19 583/5/22
f 590/11/210 594/12/17 593/8/21 589/6/211
f 575/11/105 571/12/102 572/8/103 576/6/104
f 597/6/16 601/8/15 602/7/19 598/5/22
f 601/8/15 599/10/14 600/9/20 602/7/19
f 602/5/19 600/7/20 596/14/21 598/13/22
f 592/6/16 588/8/212 587/7/213 591/5/22
f 580/8/15 582/10/14 581/9/20 579/7/19
f 594/4/17 592/6/16 591/5/22 593/3/21
f 592/1/16 594/4/17 590/3/210 588/2/212
f 597/1/16 595/4/17 599/3/14 601/2/15
f 608/1/16 610/4/17 606/3/214 604/2/215
f 599/11/14 595/12/17 596/8/21 600/6/20
f 610/4/17 608/6/16 607/5/22 609/3/21
f 608/6/16 604/8/215 603/7/216 607/5/22
f 588/8/212 590/10/210 589/9/211 587/7/213
f 604/8/215 606/10/214 605/9/217 603/7/216
f 606/11/214 610/12/17 609/8/21 605/6/217
f 587/5/213 589/7/211 593/14/21 591/13/22
f 595/4/17 597/6/16 598/5/22 596/3/21
f 603/5/216 605/7/217 609/14/21 607/13/22
f 613/6/128 617/8/129 618/7/127 614/5/126
f 618/5/127 616/7/124 612/14/218 614/13/126
f 611/4/122 613/6/128 614/5/126 612/3/218
f 617/8/129 615/10/125 616/9/124 618/7/127
f 613/1/128 611/4/122 615/3/125 617/2/129
f 615/11/125 611/12/122 612/8/218 616/6/124
f 619/6/134 621/8/137 555/7/204 551/5/135
f 630/4/130 619/6/134 551/5/135 567/3/131
f 621/8/137 631/10/133 566/9/132 555/7/204
f 619/1/134 630/4/130 631/3/133 621/2/137
f 549/15/205 569/15/208 632/16/219 620/16/220
f 624/6/148 628/8/149 629/7/147 625/5/146
f 629/5/147 627/7/144 623/14/143 625/13/146
f 622/4/142 624/6/148 625/5/146 623/3/143
f 628/8/149 626/10/145 627/9/144 629/7/147
f 624/1/148 622/4/142 626/3/145 628/2/149
f 626/11/145 622/12/142 623/8/143 627/6/144
f 620/16/220 631/11/133 630/12/130 549/15/205
f 553/17/209 566/6/132 631/11/133 620/16/220
f 549/15/205 630/12/130 567/8/131
f 620/16/220 632/16/219 568/17/209 553/17/209
usemtl red.002
f 78/16/53 76/17/63 77/15/54
f 140/16/92 77/15/54 76/17/63
s 0
usemtl Colore.003
f 141/1/2 142/2/2 144/3/2 143/4/2
f 143/4/1 144/3/1 148/5/1 147/6/1
f 147/6/4 148/5/4 146/7/4 145/8/4
f 145/8/3 146/7/3 142/9/3 141/10/3
f 143/11/6 147/6/6 145/8/6 141/12/6
f 148/5/5 144/13/5 142/14/5 146/7/5
f 149/1/2 150/2/2 152/3/2 151/4/2
f 151/4/3 152/3/3 156/5/3 155/6/3
f 155/6/4 156/5/4 154/7/4 153/8/4
f 153/8/1 154/7/1 150/9/1 149/10/1
f 151/11/5 155/6/5 153/8/5 149/12/5
f 156/5/6 152/13/6 150/14/6 154/7/6
f 157/1/1 158/2/1 160/3/1 159/4/1
f 159/4/2 160/3/2 164/5/2 163/6/2
f 163/6/3 164/5/3 162/7/3 161/8/3
f 161/8/4 162/7/4 158/9/4 157/10/4
f 159/11/5 163/6/5 161/8/5 157/12/5
f 164/5/6 160/13/6 158/14/6 162/7/6
f 165/1/1 166/2/1 168/3/1 167/4/1
f 167/4/2 168/3/2 172/5/2 171/6/2
f 171/6/3 172/5/3 170/7/3 169/8/3
f 169/8/4 170/7/4 166/9/4 165/10/4
f 167/11/5 171/6/5 169/8/5 165/12/5
f 172/5/6 168/13/6 166/14/6 170/7/6
f 173/1/2 174/2/2 176/3/2 175/4/2
f 175/4/3 176/3/3 180/5/3 179/6/3
f 179/6/4 180/5/4 178/7/4 177/8/4
f 177/8/1 178/7/1 174/9/1 173/10/1
f 175/11/5 179/6/5 177/8/5 173/12/5
f 180/5/6 176/13/6 174/14/6 178/7/6
f 181/1/2 182/2/2 184/3/2 183/4/2
f 183/4/3 184/3/3 188/5/3 187/6/3
f 187/6/4 188/5/4 186/7/4 185/8/4
f 185/8/1 186/7/1 182/9/1 181/10/1
f 183/11/5 187/6/5 185/8/5 181/12/5
f 188/5/6 184/13/6 182/14/6 186/7/6
f 189/1/2 190/2/2 192/3/2 191/4/2
f 191/4/1 192/3/1 196/5/1 195/6/1
f 195/6/4 196/5/4 194/7/4 193/8/4
f 193/8/3 194/7/3 190/9/3 189/10/3
f 191/11/6 195/6/6 193/8/6 189/12/6
f 196/5/5 192/13/5 190/14/5 194/7/5
f 197/1/2 198/2/2 200/3/2 199/4/2
f 199/4/1 200/3/1 204/5/1 203/6/1
f 203/6/4 204/5/4 202/7/4 201/8/4
f 201/8/3 202/7/3 198/9/3 197/10/3
f 199/11/6 203/6/6 201/8/6 197/12/6
f 204/5/5 200/13/5 198/14/5 202/7/5
f 205/1/2 206/2/2 208/3/2 207/4/2
f 207/4/1 208/3/1 212/5/1 211/6/1
f 211/6/4 212/5/4 210/7/4 209/8/4
f 209/8/3 210/7/3 206/9/3 205/10/3
f 207/11/6 211/6/6 209/8/6 205/12/6
f 212/5/5 208/13/5 206/14/5 210/7/5
s 1
usemtl red
f 282/16/140 280/17/150 281/15/141
f 344/16/179 281/15/141 280/17/150
s 0
usemtl Bench_Bottom.001
f 345/1/2 346/2/2 348/3/2 347/4/2
f 347/4/3 348/3/3 352/5/3 351/6/3
f 351/6/4 352/5/4 350/7/4 349/8/4
f 349/8/1 350/7/1 346/9/1 345/10/1
f 347/11/5 351/6/5 349/8/5 345/12/5
f 352/5/6 348/13/6 346/14/6 350/7/6
s 1
usemtl red.003
f 422/16/53 420/17/63 421/15/54
f 484/16/92 421/15/54 420/17/63
s 0
usemtl Bench_Bottom.002
f 485/1/1 486/2/1 488/3/1 487/4/1
f 487/4/2 488/3/2 492/5/2 491/6/2
f 491/6/3 492/5/3 490/7/3 489/8/3
f 489/8/4 490/7/4 486/9/4 485/10/4
f 487/11/5 491/6/5 489/8/5 485/12/5
f 492/5/6 488/13/6 486/14/6 490/7/6
usemtl Bench_Bottom.004
f 493/1/2 494/2/2 496/3/2 495/4/2
f 495/4/3 496/3/3 500/5/3 499/6/3
f 499/6/4 500/5/4 498/7/4 497/8/4
f 497/8/1 498/7/1 494/9/1 493/10/1
f 495/11/5 499/6/5 497/8/5 493/12/5
f 500/5/6 496/13/6 494/14/6 498/7/6
s 1
usemtl red.001
f 570/16/207 568/17/209 569/15/208
f 632/16/219 569/15/208 568/17/209
